<svg width="20" height="20" viewBox="0 0 20 20" fill="none" xmlns="http://www.w3.org/2000/svg">
  <path d="M19.0002 19L14.6572 14.657M14.6572 14.657C15.4001 13.9141 15.9894 13.0321 16.3914 12.0615C16.7935 11.0909 17.0004 10.0506 17.0004 9C17.0004 7.94936 16.7935 6.90905 16.3914 5.93842C15.9894 4.96779 15.4001 4.08585 14.6572 3.34296C13.9143 2.60007 13.0324 2.01078 12.0618 1.60874C11.0911 1.20669 10.0508 0.999756 9.00019 0.999756C7.94955 0.999756 6.90924 1.20669 5.93861 1.60874C4.96798 2.01078 4.08604 2.60007 3.34315 3.34296C1.84288 4.84323 1.00019 6.87818 1.00019 9C1.00019 11.1217 1.84288 13.1566 3.34315 14.6569C4.84342 16.1572 6.87837 16.9999 9.00019 16.9999C11.122 16.9999 13.1569 16.1572 14.6572 14.657Z" stroke="currentColor" stroke-width="2" stroke-linecap="round" stroke-linejoin="round"/>
</svg> 